<svg xmlns="http://www.w3.org/2000/svg" version="1.1" xmlns:xlink="http://www.w3.org/1999/xlink" xmlns:svgjs="http://svgjs.com/svgjs" width="1440" height="560" preserveAspectRatio="none" viewBox="0 0 1440 560">
    <g mask="url(&quot;#SvgjsMask1003&quot;)" fill="none">
        <rect width="1440" height="560" x="0" y="0" fill="#0e2a47"></rect>
        <path d="M22.85 -58.23L87.8 -20.73L87.8 54.27L22.85 91.77L-42.1 54.27L-42.1 -20.73zM22.85 166.77L87.8 204.27L87.8 279.27L22.85 316.77L-42.1 279.27L-42.1 204.27zM87.8 504.27L152.76 541.77L152.76 616.77L87.8 654.27L22.85 616.77L22.85 541.77zM152.76 -58.23L217.71 -20.73L217.71 54.27L152.76 91.77L87.8 54.27L87.8 -20.73zM152.76 166.77L217.71 204.27L217.71 279.27L152.76 316.77L87.8 279.27L87.8 204.27zM217.71 504.27L282.67 541.77L282.67 616.77L217.71 654.27L152.76 616.77L152.76 541.77zM347.62 54.27L412.57 91.77L412.57 166.77L347.62 204.27L282.67 166.77L282.67 91.77zM347.62 504.27L412.57 541.77L412.57 616.77L347.62 654.27L282.67 616.77L282.67 541.77zM412.57 -58.23L477.53 -20.73L477.53 54.27L412.57 91.77L347.62 54.27L347.62 -20.73zM412.57 166.77L477.53 204.27L477.53 279.27L412.57 316.77L347.62 279.27L347.62 204.27zM412.57 391.77L477.53 429.27L477.53 504.27L412.57 541.77L347.62 504.27L347.62 429.27zM477.53 504.27L542.48 541.77L542.48 616.77L477.53 654.27L412.57 616.77L412.57 541.77zM607.43 54.27L672.39 91.77L672.39 166.77L607.43 204.27L542.48 166.77L542.48 91.77zM542.48 166.77L607.43 204.27L607.43 279.27L542.48 316.77L477.53 279.27L477.53 204.27zM607.43 279.27L672.39 316.77L672.39 391.77L607.43 429.27L542.48 391.77L542.48 316.77zM672.39 166.77L737.34 204.27L737.34 279.27L672.39 316.77L607.43 279.27L607.43 204.27zM737.34 279.27L802.3 316.77L802.3 391.77L737.34 429.27L672.39 391.77L672.39 316.77zM672.39 391.77L737.34 429.27L737.34 504.27L672.39 541.77L607.43 504.27L607.43 429.27zM867.25 54.27L932.2 91.77L932.2 166.77L867.25 204.27L802.29 166.77L802.29 91.77zM802.29 391.77L867.25 429.27L867.25 504.27L802.29 541.77L737.34 504.27L737.34 429.27zM867.25 504.27L932.2 541.77L932.2 616.77L867.25 654.27L802.29 616.77L802.29 541.77zM932.2 -58.23L997.16 -20.73L997.16 54.27L932.2 91.77L867.25 54.27L867.25 -20.73zM932.2 166.77L997.16 204.27L997.16 279.27L932.2 316.77L867.25 279.27L867.25 204.27zM1062.11 166.77L1127.06 204.27L1127.06 279.27L1062.11 316.77L997.16 279.27L997.16 204.27zM1127.06 504.27L1192.02 541.77L1192.02 616.77L1127.06 654.27L1062.11 616.77L1062.11 541.77zM1256.97 279.27L1321.92 316.77L1321.92 391.77L1256.97 429.27L1192.02 391.77L1192.02 316.77zM1192.02 391.77L1256.97 429.27L1256.97 504.27L1192.02 541.77L1127.06 504.27L1127.06 429.27zM1386.88 504.27L1451.83 541.77L1451.83 616.77L1386.88 654.27L1321.92 616.77L1321.92 541.77z" stroke="#03305d" stroke-width="2"></path>
        <path d="M15.35 -58.23 a7.5 7.5 0 1 0 15 0 a7.5 7.5 0 1 0 -15 0zM80.3 -20.73 a7.5 7.5 0 1 0 15 0 a7.5 7.5 0 1 0 -15 0zM80.3 54.27 a7.5 7.5 0 1 0 15 0 a7.5 7.5 0 1 0 -15 0zM15.35 91.77 a7.5 7.5 0 1 0 15 0 a7.5 7.5 0 1 0 -15 0zM-49.6 54.27 a7.5 7.5 0 1 0 15 0 a7.5 7.5 0 1 0 -15 0zM-49.6 -20.73 a7.5 7.5 0 1 0 15 0 a7.5 7.5 0 1 0 -15 0zM15.35 166.77 a7.5 7.5 0 1 0 15 0 a7.5 7.5 0 1 0 -15 0zM80.3 204.27 a7.5 7.5 0 1 0 15 0 a7.5 7.5 0 1 0 -15 0zM80.3 279.27 a7.5 7.5 0 1 0 15 0 a7.5 7.5 0 1 0 -15 0zM15.35 316.77 a7.5 7.5 0 1 0 15 0 a7.5 7.5 0 1 0 -15 0zM-49.6 279.27 a7.5 7.5 0 1 0 15 0 a7.5 7.5 0 1 0 -15 0zM-49.6 204.27 a7.5 7.5 0 1 0 15 0 a7.5 7.5 0 1 0 -15 0zM80.3 504.27 a7.5 7.5 0 1 0 15 0 a7.5 7.5 0 1 0 -15 0zM145.26 541.77 a7.5 7.5 0 1 0 15 0 a7.5 7.5 0 1 0 -15 0zM145.26 616.77 a7.5 7.5 0 1 0 15 0 a7.5 7.5 0 1 0 -15 0zM80.3 654.27 a7.5 7.5 0 1 0 15 0 a7.5 7.5 0 1 0 -15 0zM15.35 616.77 a7.5 7.5 0 1 0 15 0 a7.5 7.5 0 1 0 -15 0zM15.35 541.77 a7.5 7.5 0 1 0 15 0 a7.5 7.5 0 1 0 -15 0zM145.26 -58.23 a7.5 7.5 0 1 0 15 0 a7.5 7.5 0 1 0 -15 0zM210.21 -20.73 a7.5 7.5 0 1 0 15 0 a7.5 7.5 0 1 0 -15 0zM210.21 54.27 a7.5 7.5 0 1 0 15 0 a7.5 7.5 0 1 0 -15 0zM145.26 91.77 a7.5 7.5 0 1 0 15 0 a7.5 7.5 0 1 0 -15 0zM145.26 166.77 a7.5 7.5 0 1 0 15 0 a7.5 7.5 0 1 0 -15 0zM210.21 204.27 a7.5 7.5 0 1 0 15 0 a7.5 7.5 0 1 0 -15 0zM210.21 279.27 a7.5 7.5 0 1 0 15 0 a7.5 7.5 0 1 0 -15 0zM145.26 316.77 a7.5 7.5 0 1 0 15 0 a7.5 7.5 0 1 0 -15 0zM210.21 504.27 a7.5 7.5 0 1 0 15 0 a7.5 7.5 0 1 0 -15 0zM275.17 541.77 a7.5 7.5 0 1 0 15 0 a7.5 7.5 0 1 0 -15 0zM275.17 616.77 a7.5 7.5 0 1 0 15 0 a7.5 7.5 0 1 0 -15 0zM210.21 654.27 a7.5 7.5 0 1 0 15 0 a7.5 7.5 0 1 0 -15 0zM340.12 54.27 a7.5 7.5 0 1 0 15 0 a7.5 7.5 0 1 0 -15 0zM405.07 91.77 a7.5 7.5 0 1 0 15 0 a7.5 7.5 0 1 0 -15 0zM405.07 166.77 a7.5 7.5 0 1 0 15 0 a7.5 7.5 0 1 0 -15 0zM340.12 204.27 a7.5 7.5 0 1 0 15 0 a7.5 7.5 0 1 0 -15 0zM275.17 166.77 a7.5 7.5 0 1 0 15 0 a7.5 7.5 0 1 0 -15 0zM275.17 91.77 a7.5 7.5 0 1 0 15 0 a7.5 7.5 0 1 0 -15 0zM340.12 504.27 a7.5 7.5 0 1 0 15 0 a7.5 7.5 0 1 0 -15 0zM405.07 541.77 a7.5 7.5 0 1 0 15 0 a7.5 7.5 0 1 0 -15 0zM405.07 616.77 a7.5 7.5 0 1 0 15 0 a7.5 7.5 0 1 0 -15 0zM340.12 654.27 a7.5 7.5 0 1 0 15 0 a7.5 7.5 0 1 0 -15 0zM405.07 -58.23 a7.5 7.5 0 1 0 15 0 a7.5 7.5 0 1 0 -15 0zM470.03 -20.73 a7.5 7.5 0 1 0 15 0 a7.5 7.5 0 1 0 -15 0zM470.03 54.27 a7.5 7.5 0 1 0 15 0 a7.5 7.5 0 1 0 -15 0zM340.12 -20.73 a7.5 7.5 0 1 0 15 0 a7.5 7.5 0 1 0 -15 0zM470.03 204.27 a7.5 7.5 0 1 0 15 0 a7.5 7.5 0 1 0 -15 0zM470.03 279.27 a7.5 7.5 0 1 0 15 0 a7.5 7.5 0 1 0 -15 0zM405.07 316.77 a7.5 7.5 0 1 0 15 0 a7.5 7.5 0 1 0 -15 0zM340.12 279.27 a7.5 7.5 0 1 0 15 0 a7.5 7.5 0 1 0 -15 0zM405.07 391.77 a7.5 7.5 0 1 0 15 0 a7.5 7.5 0 1 0 -15 0zM470.03 429.27 a7.5 7.5 0 1 0 15 0 a7.5 7.5 0 1 0 -15 0zM470.03 504.27 a7.5 7.5 0 1 0 15 0 a7.5 7.5 0 1 0 -15 0zM340.12 429.27 a7.5 7.5 0 1 0 15 0 a7.5 7.5 0 1 0 -15 0zM534.98 541.77 a7.5 7.5 0 1 0 15 0 a7.5 7.5 0 1 0 -15 0zM534.98 616.77 a7.5 7.5 0 1 0 15 0 a7.5 7.5 0 1 0 -15 0zM470.03 654.27 a7.5 7.5 0 1 0 15 0 a7.5 7.5 0 1 0 -15 0zM599.93 54.27 a7.5 7.5 0 1 0 15 0 a7.5 7.5 0 1 0 -15 0zM664.89 91.77 a7.5 7.5 0 1 0 15 0 a7.5 7.5 0 1 0 -15 0zM664.89 166.77 a7.5 7.5 0 1 0 15 0 a7.5 7.5 0 1 0 -15 0zM599.93 204.27 a7.5 7.5 0 1 0 15 0 a7.5 7.5 0 1 0 -15 0zM534.98 166.77 a7.5 7.5 0 1 0 15 0 a7.5 7.5 0 1 0 -15 0zM534.98 91.77 a7.5 7.5 0 1 0 15 0 a7.5 7.5 0 1 0 -15 0zM599.93 279.27 a7.5 7.5 0 1 0 15 0 a7.5 7.5 0 1 0 -15 0zM534.98 316.77 a7.5 7.5 0 1 0 15 0 a7.5 7.5 0 1 0 -15 0zM664.89 316.77 a7.5 7.5 0 1 0 15 0 a7.5 7.5 0 1 0 -15 0zM664.89 391.77 a7.5 7.5 0 1 0 15 0 a7.5 7.5 0 1 0 -15 0zM599.93 429.27 a7.5 7.5 0 1 0 15 0 a7.5 7.5 0 1 0 -15 0zM534.98 391.77 a7.5 7.5 0 1 0 15 0 a7.5 7.5 0 1 0 -15 0zM729.84 204.27 a7.5 7.5 0 1 0 15 0 a7.5 7.5 0 1 0 -15 0zM729.84 279.27 a7.5 7.5 0 1 0 15 0 a7.5 7.5 0 1 0 -15 0zM794.8 316.77 a7.5 7.5 0 1 0 15 0 a7.5 7.5 0 1 0 -15 0zM794.8 391.77 a7.5 7.5 0 1 0 15 0 a7.5 7.5 0 1 0 -15 0zM729.84 429.27 a7.5 7.5 0 1 0 15 0 a7.5 7.5 0 1 0 -15 0zM729.84 504.27 a7.5 7.5 0 1 0 15 0 a7.5 7.5 0 1 0 -15 0zM664.89 541.77 a7.5 7.5 0 1 0 15 0 a7.5 7.5 0 1 0 -15 0zM599.93 504.27 a7.5 7.5 0 1 0 15 0 a7.5 7.5 0 1 0 -15 0zM859.75 54.27 a7.5 7.5 0 1 0 15 0 a7.5 7.5 0 1 0 -15 0zM924.7 91.77 a7.5 7.5 0 1 0 15 0 a7.5 7.5 0 1 0 -15 0zM924.7 166.77 a7.5 7.5 0 1 0 15 0 a7.5 7.5 0 1 0 -15 0zM859.75 204.27 a7.5 7.5 0 1 0 15 0 a7.5 7.5 0 1 0 -15 0zM794.79 166.77 a7.5 7.5 0 1 0 15 0 a7.5 7.5 0 1 0 -15 0zM794.79 91.77 a7.5 7.5 0 1 0 15 0 a7.5 7.5 0 1 0 -15 0zM794.79 391.77 a7.5 7.5 0 1 0 15 0 a7.5 7.5 0 1 0 -15 0zM859.75 429.27 a7.5 7.5 0 1 0 15 0 a7.5 7.5 0 1 0 -15 0zM859.75 504.27 a7.5 7.5 0 1 0 15 0 a7.5 7.5 0 1 0 -15 0zM794.79 541.77 a7.5 7.5 0 1 0 15 0 a7.5 7.5 0 1 0 -15 0zM924.7 541.77 a7.5 7.5 0 1 0 15 0 a7.5 7.5 0 1 0 -15 0zM924.7 616.77 a7.5 7.5 0 1 0 15 0 a7.5 7.5 0 1 0 -15 0zM859.75 654.27 a7.5 7.5 0 1 0 15 0 a7.5 7.5 0 1 0 -15 0zM794.79 616.77 a7.5 7.5 0 1 0 15 0 a7.5 7.5 0 1 0 -15 0zM924.7 -58.23 a7.5 7.5 0 1 0 15 0 a7.5 7.5 0 1 0 -15 0zM989.66 -20.73 a7.5 7.5 0 1 0 15 0 a7.5 7.5 0 1 0 -15 0zM989.66 54.27 a7.5 7.5 0 1 0 15 0 a7.5 7.5 0 1 0 -15 0zM859.75 -20.73 a7.5 7.5 0 1 0 15 0 a7.5 7.5 0 1 0 -15 0zM989.66 204.27 a7.5 7.5 0 1 0 15 0 a7.5 7.5 0 1 0 -15 0zM989.66 279.27 a7.5 7.5 0 1 0 15 0 a7.5 7.5 0 1 0 -15 0zM924.7 316.77 a7.5 7.5 0 1 0 15 0 a7.5 7.5 0 1 0 -15 0zM859.75 279.27 a7.5 7.5 0 1 0 15 0 a7.5 7.5 0 1 0 -15 0zM1054.61 166.77 a7.5 7.5 0 1 0 15 0 a7.5 7.5 0 1 0 -15 0zM1119.56 204.27 a7.5 7.5 0 1 0 15 0 a7.5 7.5 0 1 0 -15 0zM1119.56 279.27 a7.5 7.5 0 1 0 15 0 a7.5 7.5 0 1 0 -15 0zM1054.61 316.77 a7.5 7.5 0 1 0 15 0 a7.5 7.5 0 1 0 -15 0zM1119.56 504.27 a7.5 7.5 0 1 0 15 0 a7.5 7.5 0 1 0 -15 0zM1184.52 541.77 a7.5 7.5 0 1 0 15 0 a7.5 7.5 0 1 0 -15 0zM1184.52 616.77 a7.5 7.5 0 1 0 15 0 a7.5 7.5 0 1 0 -15 0zM1119.56 654.27 a7.5 7.5 0 1 0 15 0 a7.5 7.5 0 1 0 -15 0zM1054.61 616.77 a7.5 7.5 0 1 0 15 0 a7.5 7.5 0 1 0 -15 0zM1054.61 541.77 a7.5 7.5 0 1 0 15 0 a7.5 7.5 0 1 0 -15 0zM1249.47 279.27 a7.5 7.5 0 1 0 15 0 a7.5 7.5 0 1 0 -15 0zM1314.42 316.77 a7.5 7.5 0 1 0 15 0 a7.5 7.5 0 1 0 -15 0zM1314.42 391.77 a7.5 7.5 0 1 0 15 0 a7.5 7.5 0 1 0 -15 0zM1249.47 429.27 a7.5 7.5 0 1 0 15 0 a7.5 7.5 0 1 0 -15 0zM1184.52 391.77 a7.5 7.5 0 1 0 15 0 a7.5 7.5 0 1 0 -15 0zM1184.52 316.77 a7.5 7.5 0 1 0 15 0 a7.5 7.5 0 1 0 -15 0zM1249.47 504.27 a7.5 7.5 0 1 0 15 0 a7.5 7.5 0 1 0 -15 0zM1119.56 429.27 a7.5 7.5 0 1 0 15 0 a7.5 7.5 0 1 0 -15 0zM1379.38 504.27 a7.5 7.5 0 1 0 15 0 a7.5 7.5 0 1 0 -15 0zM1444.33 541.77 a7.5 7.5 0 1 0 15 0 a7.5 7.5 0 1 0 -15 0zM1444.33 616.77 a7.5 7.5 0 1 0 15 0 a7.5 7.5 0 1 0 -15 0zM1379.38 654.27 a7.5 7.5 0 1 0 15 0 a7.5 7.5 0 1 0 -15 0zM1314.42 616.77 a7.5 7.5 0 1 0 15 0 a7.5 7.5 0 1 0 -15 0zM1314.42 541.77 a7.5 7.5 0 1 0 15 0 a7.5 7.5 0 1 0 -15 0z" fill="#03305d"></path>
        <path d="M18.29 259.02L61.59 284.02L61.59 334.02L18.29 359.02L-25.01 334.02L-25.01 284.02zM18.29 409.02L61.59 434.02L61.59 484.02L18.29 509.02L-25.01 484.02L-25.01 434.02zM61.59 484.02L104.9 509.02L104.9 559.02L61.59 584.02L18.29 559.02L18.29 509.02zM148.2 184.02L191.5 209.02L191.5 259.02L148.2 284.02L104.9 259.02L104.9 209.02zM148.2 484.02L191.5 509.02L191.5 559.02L148.2 584.02L104.9 559.02L104.9 509.02zM234.8 34.02L278.11 59.02L278.11 109.02L234.8 134.02L191.5 109.02L191.5 59.02zM278.11 -40.98L321.41 -15.98L321.41 34.02L278.11 59.02L234.8 34.02L234.8 -15.98zM278.11 259.02L321.41 284.02L321.41 334.02L278.11 359.02L234.8 334.02L234.8 284.02zM321.41 484.02L364.71 509.02L364.71 559.02L321.41 584.02L278.11 559.02L278.11 509.02zM364.71 -40.98L408.01 -15.98L408.01 34.02L364.71 59.02L321.41 34.02L321.41 -15.98zM494.62 34.02L537.92 59.02L537.92 109.02L494.62 134.02L451.32 109.02L451.32 59.02zM451.32 259.02L494.62 284.02L494.62 334.02L451.32 359.02L408.01 334.02L408.01 284.02zM581.22 184.02L624.52 209.02L624.52 259.02L581.22 284.02L537.92 259.02L537.92 209.02zM624.52 259.02L667.83 284.02L667.83 334.02L624.52 359.02L581.22 334.02L581.22 284.02zM667.83 334.02L711.13 359.02L711.13 409.02L667.83 434.02L624.52 409.02L624.52 359.02zM667.83 484.02L711.13 509.02L711.13 559.02L667.83 584.02L624.52 559.02L624.52 509.02zM754.43 484.02L797.74 509.02L797.74 559.02L754.43 584.02L711.13 559.02L711.13 509.02zM797.74 109.02L841.04 134.02L841.04 184.02L797.74 209.02L754.43 184.02L754.43 134.02zM797.74 409.02L841.04 434.02L841.04 484.02L797.74 509.02L754.43 484.02L754.43 434.02zM884.34 -40.98L927.64 -15.98L927.64 34.02L884.34 59.02L841.04 34.02L841.04 -15.98zM927.64 334.02L970.95 359.02L970.95 409.02L927.64 434.02L884.34 409.02L884.34 359.02zM1144.15 -40.98L1187.46 -15.98L1187.46 34.02L1144.15 59.02L1100.85 34.02L1100.85 -15.98zM1144.15 109.02L1187.46 134.02L1187.46 184.02L1144.15 209.02L1100.85 184.02L1100.85 134.02zM1144.15 259.02L1187.46 284.02L1187.46 334.02L1144.15 359.02L1100.85 334.02L1100.85 284.02zM1187.46 484.02L1230.76 509.02L1230.76 559.02L1187.46 584.02L1144.15 559.02L1144.15 509.02zM1230.76 -40.98L1274.06 -15.98L1274.06 34.02L1230.76 59.02L1187.46 34.02L1187.46 -15.98zM1274.06 34.02L1317.37 59.02L1317.37 109.02L1274.06 134.02L1230.76 109.02L1230.76 59.02zM1360.67 184.02L1403.97 209.02L1403.97 259.02L1360.67 284.02L1317.37 259.02L1317.37 209.02zM1317.37 259.02L1360.67 284.02L1360.67 334.02L1317.37 359.02L1274.06 334.02L1274.06 284.02zM1360.67 334.02L1403.97 359.02L1403.97 409.02L1360.67 434.02L1317.37 409.02L1317.37 359.02zM1403.97 259.02L1447.27 284.02L1447.27 334.02L1403.97 359.02L1360.67 334.02L1360.67 284.02zM1447.27 484.02L1490.58 509.02L1490.58 559.02L1447.27 584.02L1403.97 559.02L1403.97 509.02z" stroke="rgba(6, 80, 156, 0.93)" stroke-width="2"></path>
    </g>
    <defs>
        <mask id="SvgjsMask1003">
            <rect width="1440" height="560" fill="#ffffff"></rect>
        </mask>
    </defs>
</svg>